<?xml version="1.0" standalone="no"?>
<!DOCTYPE svg PUBLIC "-//W3C//DTD SVG 20010904//EN"
 "http://www.w3.org/TR/2001/REC-SVG-20010904/DTD/svg10.dtd">
<svg version="1.0" xmlns="http://www.w3.org/2000/svg"
 width="32.000000pt" height="32.000000pt" viewBox="0 0 32.000000 32.000000"
 preserveAspectRatio="xMidYMid meet">

<g transform="translate(0.000000,32.000000) scale(0.100000,-0.100000)"
fill="#000000" stroke="none">
<path d="M66 261 c-11 -12 -25 -17 -34 -13 -15 5 -15 4 -3 -11 15 -19 33 -10
52 25 13 23 7 23 -15 -1z"/>
<path d="M120 250 c0 -6 35 -10 85 -10 50 0 85 4 85 10 0 6 -35 10 -85 10 -50
0 -85 -4 -85 -10z"/>
<path d="M66 171 c-11 -12 -25 -17 -34 -13 -15 5 -15 4 -3 -11 15 -19 33 -10
52 25 13 23 7 23 -15 -1z"/>
<path d="M120 160 c0 -6 35 -10 85 -10 50 0 85 4 85 10 0 6 -35 10 -85 10 -50
0 -85 -4 -85 -10z"/>
<path d="M66 81 c-11 -12 -25 -17 -34 -13 -15 5 -15 4 -3 -11 15 -19 33 -10
52 25 13 23 7 23 -15 -1z"/>
<path d="M120 70 c0 -6 35 -10 85 -10 50 0 85 4 85 10 0 6 -35 10 -85 10 -50
0 -85 -4 -85 -10z"/>
</g>
</svg>
